<svg id="visual" viewBox="0 0 1080 540" width="1080" height="540" xmlns="http://www.w3.org/2000/svg" xmlns:xlink="http://www.w3.org/1999/xlink" version="1.1"><rect x="0" y="0" width="1080" height="540" fill="#f5f5f5"></rect><path d="M0 443L25.7 435.3C51.3 427.7 102.7 412.3 154.2 398.7C205.7 385 257.3 373 308.8 377.5C360.3 382 411.7 403 463 397C514.3 391 565.7 358 617 349.3C668.3 340.7 719.7 356.3 771.2 348.2C822.7 340 874.3 308 925.8 295C977.3 282 1028.7 288 1054.3 291L1080 294L1080 541L1054.3 541C1028.7 541 977.3 541 925.8 541C874.3 541 822.7 541 771.2 541C719.7 541 668.3 541 617 541C565.7 541 514.3 541 463 541C411.7 541 360.3 541 308.8 541C257.3 541 205.7 541 154.2 541C102.7 541 51.3 541 25.7 541L0 541Z" fill="#007bff" stroke-linecap="round" stroke-linejoin="miter"></path></svg>